Patient4_TMGait_0pt4_03_right_25_GRF.mot
version=1
nRows=45
nColumns=19
inDegrees=no
endheader
time	F1x	F1y	F1z	M1x	M1y	M1z	F2x	F2y	F2z	M2x	M2y	M2z	EC1x	EC1y	EC1z	EC2x	EC2y	EC2z
32.21	-22.6583	744.3027	68.9612	-243.5552	-76.8012	798.8544	18.6722	17.5981	-0.22065	4.145	-4.4223	16.4449	-0.0592	0.0182	-0.0073	-0.0462	0.0165	0.9585
32.2235	-17.7396	738.4377	67.3561	-241.341	-73.8146	790.3641	12.3186	12.3961	-0.17993	3.0156	-2.8116	11.7003	-0.0592	0.0182	-0.0073	-0.0462	0.0165	0.9585
32.237	-13.1861	732.0045	65.7753	-238.9119	-70.8107	780.9877	6.9551	8.0391	-0.16937	2.0846	-1.4363	7.7288	-0.0592	0.0182	-0.0073	-0.0462	0.0165	0.9585
32.2505	-9.2335	725.8476	64.3352	-236.5646	-67.973	771.6781	2.8794	4.7761	-0.18181	1.4024	-0.37909	4.762	-0.0592	0.0182	-0.0073	-0.0462	0.0165	0.9585
32.264	-5.9021	720.8629	63.0898	-234.6149	-65.3835	763.407	0.056448	2.5702	-0.20939	0.95635	0.3655	2.7637	-0.0592	0.0182	-0.0073	-0.0462	0.0165	0.9585
32.2775	-3.1037	717.8218	62.0602	-233.3372	-63.0687	756.9925	-1.709	1.2409	-0.24556	0.70053	0.84858	1.5627	-0.0592	0.0182	-0.0073	-0.0462	0.0165	0.9585
32.291	-0.69047	717.2708	61.2357	-232.9296	-61.0053	752.9848	-2.6763	0.55836	-0.28483	0.57653	1.1373	0.9441	-0.0592	0.0182	-0.0073	-0.0462	0.0165	0.9585
32.3045	1.4934	719.5168	60.6077	-233.5044	-59.1631	751.672	-3.1107	0.25783	-0.32692	0.51675	1.3013	0.64794	-0.0592	0.0182	-0.0073	-0.0462	0.0165	0.9585
32.318	3.6085	724.5907	60.1438	-235.0772	-57.4817	753.0459	-3.2411	0.093481	-0.37237	0.4551	1.4004	0.43524	-0.0592	0.0182	-0.0073	-0.0462	0.0165	0.9585
32.3315	5.796	732.212	59.8248	-237.5528	-55.9119	756.7852	-3.2285	-0.13948	-0.42167	0.33214	1.4745	0.10711	-0.0592	0.0182	-0.0073	-0.0462	0.0165	0.9585
32.345	8.1776	741.7841	59.6225	-240.7259	-54.3974	762.2607	-3.1777	-0.63337	-0.47254	0.088786	1.5439	-0.53148	-0.0592	0.0182	-0.0073	-0.0462	0.0165	0.9585
32.3585	10.8367	752.3996	59.5362	-244.2826	-52.9162	768.5667	-3.1402	-1.5352	-0.51777	-0.32287	1.6099	-1.6275	-0.0592	0.0182	-0.0073	-0.0462	0.0165	0.9585
32.372	13.8019	762.9233	59.5615	-247.828	-51.4617	774.6148	-3.0909	-2.9182	-0.54843	-0.92786	1.6474	-3.2572	-0.0592	0.0182	-0.0073	-0.0462	0.0165	0.9585
32.3855	17.0413	772.0833	59.7101	-250.9157	-50.0641	779.2196	-2.9579	-4.7636	-0.55083	-1.7163	1.608	-5.3951	-0.0592	0.0182	-0.0073	-0.0462	0.0165	0.9585
32.399	20.4508	778.5693	59.9905	-253.0816	-48.7716	781.1955	-2.6151	-6.9141	-0.49927	-2.6231	1.4113	-7.8611	-0.0592	0.0182	-0.0073	-0.0462	0.0165	0.9585
32.4125	23.8796	781.2193	60.4095	-253.9084	-47.6473	779.5206	-1.8792	-8.9914	-0.36427	-3.495	0.95404	-10.2309	-0.0592	0.0182	-0.0073	-0.0462	0.0165	0.9585
32.426	27.1838	779.2879	60.9606	-253.1184	-46.7432	773.5791	-0.54538	-10.3269	-0.10519	-4.0615	0.11213	-11.7417	-0.0592	0.0182	-0.0073	-0.0462	0.0165	0.9585
32.4395	30.2608	772.6671	61.6327	-250.6491	-46.094	763.3642	1.6012	-9.9069	0.3224	-3.9081	-1.2462	-11.2249	-0.0592	0.0182	-0.0073	-0.0462	0.0165	0.9585
32.453	33.0595	761.8826	62.4116	-246.6565	-45.7143	749.4714	4.7329	-6.2991	0.95283	-2.4487	-3.2223	-7.0194	-0.0592	0.0182	-0.0073	-0.0462	0.0165	0.9585
32.4665	35.5686	747.8943	63.2642	-241.4575	-45.5875	732.91	8.9073	2.3172	1.7936	1.0635	-5.8363	2.98	-0.0592	0.0182	-0.0073	-0.0462	0.0165	0.9585
32.48	37.794	731.8127	64.1141	-235.4361	-45.6478	714.8107	13.9374	18.006	2.8033	7.4752	-8.9511	21.1538	-0.0592	0.0182	-0.0073	-0.0462	0.0165	0.9585
32.4935	39.745	714.5058	64.835	-228.9121	-45.7775	696.0351	19.2297	42.7426	3.8642	17.5967	-12.1798	49.7702	-0.0592	0.0182	-0.0073	-0.0462	0.0165	0.9585
32.507	41.3968	696.2234	65.232	-222.0186	-45.7955	676.826	23.6256	77.8289	4.7375	31.9624	-14.77	90.3075	-0.0592	0.0182	-0.0073	-0.0462	0.0165	0.9585
32.5205	42.7029	676.4555	65.0314	-214.6573	-45.445	656.6583	25.2403	123.0165	5.0261	50.4717	-15.5024	142.4603	-0.0592	0.0182	-0.0073	-0.0462	0.0165	0.9585
32.534	43.5926	654.0275	63.9025	-206.5285	-44.4146	634.3361	22.2298	176.0292	4.1567	72.1639	-12.9764	203.659	-0.0592	0.0182	-0.0073	-0.0462	0.0165	0.9585
32.5475	43.9824	627.4179	61.5539	-197.2236	-42.4313	608.3014	14.3095	232.5537	1.6281	95.2205	-6.5371	269.0242	-0.0592	0.0182	-0.0073	-0.0462	0.0165	0.9585
32.561	43.7937	595.1912	57.8668	-186.3482	-39.385	577.0618	3.5985	287.3424	-2.5405	117.4709	2.8712	332.4048	-0.0592	0.0182	-0.0073	-0.0462	0.0165	0.9585
32.5745	42.9236	556.4086	52.9807	-173.6349	-35.4104	539.6287	-7.4307	336.966	-7.9278	137.5021	13.7418	389.6489	-0.0592	0.0182	-0.0073	-0.0462	0.0165	0.9585
32.588	41.2615	510.9432	47.251	-159.0335	-30.8449	495.8134	-17.3032	380.8955	-13.9184	155.1077	24.7736	440.0135	-0.0592	0.0182	-0.0073	-0.0462	0.0165	0.9585
32.6015	38.723	459.6238	41.1119	-142.7681	-26.0979	446.3672	-25.3464	420.2725	-19.8774	170.7854	34.9802	484.8096	-0.0592	0.0182	-0.0073	-0.0462	0.0165	0.9585
32.615	35.2693	404.0957	34.9601	-125.308	-21.549	392.8456	-31.5093	456.6827	-25.3579	185.2251	43.8356	525.9002	-0.0592	0.0182	-0.0073	-0.0462	0.0165	0.9585
32.6285	30.8864	346.6036	29.0768	-107.3107	-17.4783	337.4041	-35.9734	491.6908	-30.1922	199.0933	51.2218	565.1027	-0.0592	0.0182	-0.0073	-0.0462	0.0165	0.9585
32.642	25.6342	289.6979	23.6707	-89.5343	-14.0845	282.5	-38.9913	526.6715	-34.4243	212.9556	57.3008	603.9964	-0.0592	0.0182	-0.0073	-0.0462	0.0165	0.9585
32.6555	19.7051	235.9067	18.8831	-72.7441	-11.4623	230.5715	-40.8967	562.4702	-38.2706	227.1399	62.4499	643.5835	-0.0592	0.0182	-0.0073	-0.0462	0.0165	0.9585
32.669	13.462	187.3936	14.826	-57.6058	-9.6194	183.6879	-42.0729	598.9618	-41.8781	241.5801	66.9966	683.7809	-0.0592	0.0182	-0.0073	-0.0462	0.0165	0.9585
32.6825	7.3957	145.5698	11.5411	-44.5643	-8.45	143.1809	-42.9317	635.1296	-45.4814	255.8427	71.3487	723.498	-0.0592	0.0182	-0.0073	-0.0462	0.0165	0.9585
32.696	1.9611	110.9031	9.0033	-33.7739	-7.7863	109.4946	-43.7671	669.6279	-49.0853	269.3725	75.6235	761.223	-0.0592	0.0182	-0.0073	-0.0462	0.0165	0.9585
32.7095	-2.5375	83.0004	7.1178	-25.118	-7.4371	82.2588	-44.659	701.2511	-52.6034	281.6815	79.7438	795.5673	-0.0592	0.0182	-0.0073	-0.0462	0.0165	0.9585
32.723	-5.9741	60.9469	5.7396	-18.3108	-7.2235	60.6276	-45.4926	729.0054	-55.8058	292.3846	83.4124	825.3431	-0.0592	0.0182	-0.0073	-0.0462	0.0165	0.9585
32.7365	-8.279	43.6219	4.7007	-13.0007	-6.9684	43.567	-46.0896	752.0659	-58.5651	301.1654	86.4088	849.5655	-0.0592	0.0182	-0.0073	-0.0462	0.0165	0.9585
32.75	-9.3791	29.9886	3.8332	-8.859	-6.4969	30.1145	-46.2801	769.8048	-60.7549	307.7866	88.5306	867.4893	-0.0592	0.0182	-0.0073	-0.0462	0.0165	0.9585
32.7635	-9.2307	19.2541	3.0074	-5.6277	-5.6828	19.5089	-45.9445	781.7975	-62.3722	312.0876	89.7224	878.6295	-0.0592	0.0182	-0.0073	-0.0462	0.0165	0.9585
32.777	-7.9603	10.9512	2.1654	-3.1517	-4.5166	11.2809	-45.0177	787.8848	-63.4436	314.0113	89.9945	882.8267	-0.0592	0.0182	-0.0073	-0.0462	0.0165	0.9585
32.7905	-6.0718	4.9334	1.3766	-1.3744	-3.2164	5.291	-43.4826	788.2637	-64.039	313.6432	89.4295	880.3355	-0.0592	0.0182	-0.0073	-0.0462	0.0165	0.9585
32.804	-4.1091	0.98741	0.7376	-0.22235	-2.0341	1.3482	-41.3799	783.6011	-64.1974	311.2603	88.1077	871.9398	-0.0592	0.0182	-0.0073	-0.0462	0.0165	0.9585
